<svg width="30.000000" height="30.000000" viewBox="0 0 30 30" fill="none" xmlns="http://www.w3.org/2000/svg" xmlns:xlink="http://www.w3.org/1999/xlink">
	<desc>
			Created with Pixso.
	</desc>
	<defs/>
	<path id="Vector" d="M15 0C6.71 0 0 6.5 0 14.53C0 22.55 6.71 29.06 15 29.06C23.28 29.06 30 22.55 30 14.53C30 6.5 23.28 0 15 0ZM21.95 9.88C21.72 12.18 20.75 17.75 20.25 20.32C20.04 21.41 19.62 21.78 19.22 21.81C18.35 21.89 17.69 21.26 16.85 20.72C15.53 19.88 14.78 19.36 13.5 18.54C12.02 17.6 12.98 17.08 13.82 16.23C14.04 16.01 17.88 12.62 17.96 12.32C17.96 12.28 17.97 12.14 17.89 12.06C17.8 11.99 17.67 12.01 17.58 12.03C17.44 12.06 15.33 13.41 11.25 16.08C10.65 16.48 10.11 16.67 9.62 16.66C9.09 16.65 8.06 16.37 7.29 16.13C6.35 15.83 5.6 15.68 5.67 15.18C5.7 14.91 6.08 14.65 6.79 14.37C11.16 12.53 14.07 11.31 15.53 10.72C19.7 9.04 20.56 8.75 21.13 8.74C21.25 8.74 21.53 8.77 21.71 8.91C21.83 9.01 21.91 9.15 21.92 9.31C21.95 9.49 21.96 9.69 21.95 9.88Z" fill="#98A2B3" fill-opacity="1.000000" fill-rule="nonzero"/>
</svg>
